<svg xmlns="http://www.w3.org/2000/svg" version="1.1"
	xmlns:xlink="http://www.w3.org/1999/xlink"
	xmlns:svgjs="http://svgjs.dev/svgjs" viewBox="0 0 800 800" width="800" height="800">
	<g stroke-width="1.5" stroke="hsla(0, 0%, 100%, 1)" fill="none">
		<line x1="100" y1="0" x2="0" y2="100"></line>
		<line x1="200" y1="0" x2="100" y2="100"></line>
		<line x1="300" y1="0" x2="200" y2="100"></line>
		<line x1="400" y1="0" x2="300" y2="100"></line>
		<line x1="500" y1="0" x2="400" y2="100"></line>
		<line x1="600" y1="0" x2="500" y2="100"></line>
		<line x1="700" y1="0" x2="600" y2="100"></line>
		<line x1="800" y1="0" x2="700" y2="100"></line>
		<line x1="900" y1="0" x2="800" y2="100"></line>
		<line x1="100" y1="100" x2="0" y2="200"></line>
		<line x1="200" y1="100" x2="100" y2="200"></line>
		<line x1="300" y1="100" x2="200" y2="200"></line>
		<line x1="400" y1="100" x2="300" y2="200"></line>
		<line x1="500" y1="100" x2="400" y2="200"></line>
		<line x1="600" y1="100" x2="500" y2="200"></line>
		<line x1="700" y1="100" x2="600" y2="200"></line>
		<line x1="800" y1="100" x2="700" y2="200"></line>
		<line x1="900" y1="100" x2="800" y2="200"></line>
		<line x1="100" y1="200" x2="0" y2="300"></line>
		<line x1="200" y1="200" x2="100" y2="300"></line>
		<line x1="300" y1="200" x2="200" y2="300"></line>
		<line x1="400" y1="200" x2="300" y2="300"></line>
		<line x1="500" y1="200" x2="400" y2="300"></line>
		<line x1="600" y1="200" x2="500" y2="300"></line>
		<line x1="700" y1="200" x2="600" y2="300"></line>
		<line x1="800" y1="200" x2="700" y2="300"></line>
		<line x1="900" y1="200" x2="800" y2="300"></line>
		<line x1="100" y1="300" x2="0" y2="400"></line>
		<line x1="200" y1="300" x2="100" y2="400"></line>
		<line x1="300" y1="300" x2="200" y2="400"></line>
		<line x1="400" y1="300" x2="300" y2="400"></line>
		<line x1="500" y1="300" x2="400" y2="400"></line>
		<line x1="600" y1="300" x2="500" y2="400"></line>
		<line x1="700" y1="300" x2="600" y2="400"></line>
		<line x1="800" y1="300" x2="700" y2="400"></line>
		<line x1="900" y1="300" x2="800" y2="400"></line>
		<line x1="100" y1="400" x2="0" y2="500"></line>
		<line x1="200" y1="400" x2="100" y2="500"></line>
		<line x1="300" y1="400" x2="200" y2="500"></line>
		<line x1="400" y1="400" x2="300" y2="500"></line>
		<line x1="500" y1="400" x2="400" y2="500"></line>
		<line x1="600" y1="400" x2="500" y2="500"></line>
		<line x1="700" y1="400" x2="600" y2="500"></line>
		<line x1="800" y1="400" x2="700" y2="500"></line>
		<line x1="900" y1="400" x2="800" y2="500"></line>
		<line x1="100" y1="500" x2="0" y2="600"></line>
		<line x1="200" y1="500" x2="100" y2="600"></line>
		<line x1="300" y1="500" x2="200" y2="600"></line>
		<line x1="400" y1="500" x2="300" y2="600"></line>
		<line x1="500" y1="500" x2="400" y2="600"></line>
		<line x1="600" y1="500" x2="500" y2="600"></line>
		<line x1="700" y1="500" x2="600" y2="600"></line>
		<line x1="800" y1="500" x2="700" y2="600"></line>
		<line x1="900" y1="500" x2="800" y2="600"></line>
		<line x1="100" y1="600" x2="0" y2="700"></line>
		<line x1="200" y1="600" x2="100" y2="700"></line>
		<line x1="300" y1="600" x2="200" y2="700"></line>
		<line x1="400" y1="600" x2="300" y2="700"></line>
		<line x1="500" y1="600" x2="400" y2="700"></line>
		<line x1="600" y1="600" x2="500" y2="700"></line>
		<line x1="700" y1="600" x2="600" y2="700"></line>
		<line x1="800" y1="600" x2="700" y2="700"></line>
		<line x1="900" y1="600" x2="800" y2="700"></line>
		<line x1="100" y1="700" x2="0" y2="800"></line>
		<line x1="200" y1="700" x2="100" y2="800"></line>
		<line x1="300" y1="700" x2="200" y2="800"></line>
		<line x1="400" y1="700" x2="300" y2="800"></line>
		<line x1="500" y1="700" x2="400" y2="800"></line>
		<line x1="600" y1="700" x2="500" y2="800"></line>
		<line x1="700" y1="700" x2="600" y2="800"></line>
		<line x1="800" y1="700" x2="700" y2="800"></line>
		<line x1="900" y1="700" x2="800" y2="800"></line>
		<line x1="100" y1="800" x2="0" y2="900"></line>
		<line x1="200" y1="800" x2="100" y2="900"></line>
		<line x1="300" y1="800" x2="200" y2="900"></line>
		<line x1="400" y1="800" x2="300" y2="900"></line>
		<line x1="500" y1="800" x2="400" y2="900"></line>
		<line x1="600" y1="800" x2="500" y2="900"></line>
		<line x1="700" y1="800" x2="600" y2="900"></line>
		<line x1="800" y1="800" x2="700" y2="900"></line>
		<line x1="900" y1="800" x2="800" y2="900"></line>
	</g>
</svg>